<svg xmlns="http://www.w3.org/2000/svg" viewBox="0 0 256 256"><defs><style>.cls-1{fill:#1d384d;}</style></defs><title>internet banking</title><g id="icons_without_caption" data-name="icons without caption"><g id="INTERNET_BANKING" data-name="INTERNET BANKING"><path class="cls-1" d="M86,80.27h1.74V77.13a6.61,6.61,0,0,0,2.58-.69H83.5A8.36,8.36,0,0,0,86,77.1Z"/><path class="cls-1" d="M101,76.44a16,16,0,0,1-3.17,4H195v87.93H61V80.44H75.6a16.22,16.22,0,0,1-3.17-4H57v95.93H199V76.44Z"/><path class="cls-1" d="M128,88.77a35.64,35.64,0,1,0,35.64,35.64A35.68,35.68,0,0,0,128,88.77Zm8.22,47.3h0a41.23,41.23,0,0,0-16.44,0h0a90.3,90.3,0,0,1-.68-9.67h17.8A90.13,90.13,0,0,1,136.26,136.07Zm-8.22,20c-2.52,0-5.84-5.93-7.62-16a36.93,36.93,0,0,1,15.25,0C133.88,150.12,130.57,156.05,128,156.05Zm-24.59-51.52a33,33,0,0,0,12.45,7.23h0a99,99,0,0,0-.76,10.64H96.46A31.46,31.46,0,0,1,103.45,104.54ZM128,92.77c2.53,0,5.85,5.94,7.63,16h0a37.23,37.23,0,0,1-15.27,0C122.19,98.72,125.51,92.77,128,92.77Zm0,20.85a40.38,40.38,0,0,0,8.27-.84h0a92.3,92.3,0,0,1,.67,9.62h-17.8a92.06,92.06,0,0,1,.67-9.61h0A40.32,40.32,0,0,0,128,113.62Zm12.94,8.79a99.31,99.31,0,0,0-.76-10.66h0a33.27,33.27,0,0,0,12.44-7.21,31.41,31.41,0,0,1,7,17.87Zm9-20.83a28.83,28.83,0,0,1-10.36,6.15c-1-5.77-2.62-10.8-4.76-14.22A31.64,31.64,0,0,1,149.93,101.58Zm-33.42,6.17a28.52,28.52,0,0,1-10.36-6.16,31.57,31.57,0,0,1,15.12-8.09C119.12,96.93,117.53,102,116.51,107.75ZM96.46,126.41h18.68a97.61,97.61,0,0,0,.77,10.71h0a33.28,33.28,0,0,0-12.43,7.19h0a31.52,31.52,0,0,1-7-17.91Zm9.73,20.87a29.39,29.39,0,0,1,10.33-6.1c1,5.74,2.62,10.75,4.75,14.15A31.64,31.64,0,0,1,106.19,147.28Zm28.62,8c2.14-3.42,3.73-8.43,4.75-14.2a28.55,28.55,0,0,1,10.35,6.13h0A31.56,31.56,0,0,1,134.81,155.32Zm17.8-11a33,33,0,0,0-12.44-7.21h0a97.34,97.34,0,0,0,.77-10.69h18.68A31.52,31.52,0,0,1,152.61,144.32Z"/><path class="cls-1" d="M106.86,65.38a19.73,19.73,0,0,0-1-4,20.4,20.4,0,0,0-39.3,4,21.61,21.61,0,0,0-.22,3,20.3,20.3,0,0,0,1.65,8,19.76,19.76,0,0,0,2.29,4,20.34,20.34,0,0,0,32.88,0,18.84,18.84,0,0,0,2.29-4,20.2,20.2,0,0,0,1.43-11.06ZM101,76.44a16,16,0,0,1-3.17,4,16.36,16.36,0,1,1,3.17-4Z"/><path class="cls-1" d="M87.12,67.19c-2.16-.71-3.73-1.3-3.73-2.92s1.27-2.37,3.07-2.37a8,8,0,0,1,4.37,1.53l1.3-1.61a10.74,10.74,0,0,0-4.41-1.88V56.55H86v3.28c-3.16.15-4.92,2.06-4.92,4.58,0,3.08,2.58,4,5.42,4.88,2.39.74,3.88,1.36,3.88,3.22,0,1.63-1.42,2.58-3.33,2.58a7.32,7.32,0,0,1-5-2.15l-1.36,1.62a9.1,9.1,0,0,0,2.82,1.88A8.36,8.36,0,0,0,86,77.1v3.17h1.74V77.13a6.61,6.61,0,0,0,2.58-.69,4.39,4.39,0,0,0,2.43-4.07C92.73,69.05,90.31,68.2,87.12,67.19Z"/><path class="cls-1" d="M210.58,183.79a15.2,15.2,0,0,0,5-11.25V76.64a15.27,15.27,0,0,0-15.25-15.25H105.09v4h95.23a11.27,11.27,0,0,1,11.25,11.25v95.89a11.27,11.27,0,0,1-11.25,11.25H55.68a11.27,11.27,0,0,1-11.25-11.25V76.64A11.27,11.27,0,0,1,55.68,65.39H68.32v-4H55.68A15.27,15.27,0,0,0,40.43,76.64v95.89a15.2,15.2,0,0,0,5,11.25H19.69v2A22.21,22.21,0,0,0,41.88,208H214.12a22.21,22.21,0,0,0,22.19-22.19v-2Zm-66.4,4a8.11,8.11,0,0,1-7.85,6.1H119.66a8.11,8.11,0,0,1-7.84-6.1ZM214.12,204H41.88A18.22,18.22,0,0,1,23.8,187.79H55.14v0l.54,0h52.06a12.11,12.11,0,0,0,11.92,10.1h16.67a12.11,12.11,0,0,0,11.93-10.1H232.2A18.22,18.22,0,0,1,214.12,204Z"/></g></g></svg>